<svg id="Layer_1" data-name="Layer 1" xmlns="http://www.w3.org/2000/svg" viewBox="0 0 750 750"><defs><style>.cls-1{fill:#f06;}.cls-2{fill:#fff;}</style></defs><rect class="cls-1" x="250" y="250" width="250" height="250"/><path class="cls-2" d="M335.07,330.45a14.37,14.37,0,1,0-14.58-14.37A14.42,14.42,0,0,0,335.07,330.45Z"/><path class="cls-2" d="M304.84,407.38a49.11,49.11,0,0,0-1.29,10.79c0,12.65,6.86,21.05,21.44,21.05,12.09,0,21.9-7.18,28.95-18.78l-4.31,17.3h24l13.73-55c3.43-13.94,10.07-21.17,20.15-21.17,7.93,0,12.86,4.93,12.86,13.08a25.62,25.62,0,0,1-1.07,7.72l-7.07,25.29a37.81,37.81,0,0,0-1.5,10.72c0,12,7.07,20.8,21.86,20.8,12.65,0,22.73-8.14,28.3-27.65l-9.43-3.65c-4.72,13.08-8.79,15.44-12,15.44s-4.94-2.14-4.94-6.43a28.51,28.51,0,0,1,1.07-6.65l6.87-24.65a54.48,54.48,0,0,0,2.36-15.63c0-18.44-11.15-28.06-24.66-28.06-12.65,0-25.51,11.41-31.94,23.42l4.71-21.56H356.28l-5.15,19h17.16L357.73,405c-8.3,18.44-23.54,18.74-25.45,18.31-3.14-.71-5.14-1.9-5.14-6a40.07,40.07,0,0,1,1.5-9.81l16.08-63.79H304l-5.14,19h16.93Z"/></svg>